<svg width="118" height="48" viewBox="0 0 118 48" fill="none" xmlns="http://www.w3.org/2000/svg">
  <circle cx="59.5129" cy="23.6069" r="23.6069" fill="#FFD536"/>
  <path d="M4.09816 25.8259C3.45606 27.2234 2.68175 27.2045 1.4353 26.7513L0.982049 29.1875C4.64584 30.5473 6.21335 29.4141 7.53533 26.3925L12.3134 16.6475V16.2887H8.64958L6.42109 21.3689H6.30777L3.796 16.2887H0V16.7231L4.55142 24.8816L4.09816 25.8259Z" fill="white"/>
  <path d="M24.6152 29.5086V16.2887H21.1592V21.0667H17.061V16.2887H13.605V29.5086H17.061V24.2206H21.1592V29.5086H24.6152Z" fill="white"/>
  <path d="M35.4253 22.6909V29.5086H38.8814V16.232H37.8049L30.9117 22.7476V16.2887H27.4556V29.5463H28.4754L35.4253 22.6909Z" fill="white"/>
  <path d="M51.7402 20.2924C51.7402 17.8373 50.0216 16.232 47.5665 16.232H41.7309V29.433H48.0953C50.8148 29.433 52.2879 27.6767 52.2879 25.4104C52.2879 24.2017 51.7213 23.1253 50.6448 22.5776C51.3058 22.0488 51.7402 21.1045 51.7402 20.2924ZM47.321 19.2348C48.0197 19.2348 48.3597 19.8203 48.3408 20.4057C48.3219 20.9345 47.982 21.4444 47.321 21.4444H45.1869V19.2348H47.321ZM47.8309 24.2395C48.5108 24.2395 48.9074 24.8061 48.8696 25.4104C48.8129 25.9392 48.5108 26.4302 47.8498 26.4302H45.1869V24.2395H47.8309Z" fill="white"/>
  <path d="M62.6906 16.2887H54.4376V29.5086H62.8605V26.3547H57.8936V24.2017H62.3129V21.18H57.8936V19.2915H62.6906V16.2887Z" fill="white"/>
  <path d="M68.7201 29.4897V26.0714H71.0997C74.2347 26.0714 75.8399 23.6541 75.8399 21.2367C75.8966 18.7438 74.2724 16.2698 71.0997 16.2698C69.1356 16.2509 67.2281 16.2698 65.264 16.2698V29.4897H68.7201ZM68.6634 23.0686V19.2726H71.0997C72.0439 19.2726 72.535 20.198 72.535 21.1423C72.535 22.1054 72.0062 23.0686 71.0997 23.0686H68.6634Z" fill="white"/>
  <path d="M76.9958 22.9175C76.9958 27.3745 80.3763 29.6408 83.7568 29.6408C86.5708 29.6408 89.498 28.1488 90.0079 24.3906H86.6841C86.3252 25.8259 85.1921 26.4869 83.7568 26.4869C81.7361 26.4869 80.4518 24.8061 80.4518 22.8986C80.4518 20.7079 81.7549 19.2726 83.7568 19.2726C85.1732 19.2726 86.1742 19.8014 86.6463 21.1612H89.9702C89.4602 17.6296 86.4763 16.1565 83.7568 16.1565C80.3763 16.1565 76.9958 18.3661 76.9958 22.9175Z" fill="white"/>
  <path d="M99.5074 27.8655L100.282 29.5086H103.851V29.0364L97.8454 16.1565H96.259L90.1968 29.0364V29.5086H93.8039L94.5593 27.8655H99.5074ZM97.0333 21.7844L98.412 24.976H95.6736L97.0333 21.7844Z" fill="white"/>
  <path d="M111.541 21.9732L106.291 16.2509H105.063V29.5086H108.519V23.4085L111.333 26.3547H111.73L114.544 23.4085V29.5086H118V16.2509H116.772L111.541 21.9732Z" fill="white"/>
</svg>
